# AST/ASF file generated using VICON BodyLanguage
# -----------------------------------------------
:version 1.10
:name VICON
:units
  mass 1.0
  length 0.45
  angle deg
:documentation
   .ast/.asf automatically generated from VICON data using
   VICON BodyBuilder and BodyLanguage model FoxedUp or BRILLIANT.MOD
:root
   order TX TY TZ RX RY RZ
   axis XYZ
   position 0 0 0  
   orientation 0 0 0 
:bonedata
  begin
     id 1 
     name lhipjoint
     direction 0.635376 -0.686425 0.353719 
     length 2.47244 
     axis 0 0 0  XYZ
  end
  begin
     id 2 
     name lfemur
     direction 0.34202 -0.939693 0  
     length 7.25268  
     axis 0 0 20  XYZ
    dof rx ry rz
    limits (-160.0 20.0)
           (-70.0 70.0)
           (-60.0 70.0)
  end
  begin
     id 3 
     name ltibia
     direction 0.34202 -0.939693 0   
     length 7.6767   
     axis 0 0 20   XYZ
    dof rx
    limits (-10.0 170.0)
  end
  begin
     id 4 
     name lfoot
     direction 0.0803374 -0.220725 0.972022   
     length 2.22945   
     axis -90 7.62852e-016 20   XYZ
    dof rx rz
    limits (-45.0 90.0)
           (-70.0 20.0)
  end
  begin
     id 5 
     name ltoes
     direction 1.53579e-011 -4.21994e-011 1   
     length 1.11848   
     axis -90 7.62852e-016 20   XYZ
    dof rx
    limits (-90.0 20.0)
  end
  begin
     id 6 
     name rhipjoint
     direction -0.664428 -0.664335 0.342336   
     length 2.55466  
     axis 0 0 0  XYZ 
  end
  begin
     id 7 
     name rfemur
     direction -0.34202 -0.939693 0   
     length 6.83172   
     axis 0 0 -20   XYZ
    dof rx ry rz
    limits (-160.0 20.0)
           (-70.0 70.0)
           (-70.0 60.0)
  end
  begin
     id 8 
     name rtibia
     direction -0.34202 -0.939693 0   
     length 7.62692   
     axis 0 0 -20   XYZ
    dof rx
    limits (-10.0 170.0)
 end
 begin
     id 9 
     name rfoot
     direction -0.0949276 -0.260811 0.960711   
     length 2.19684  
     axis -90 -7.62852e-016 -20   XYZ
    dof rx rz
    limits (-45.0 90.0)
           (-20.0 70.0)
  end
  begin
     id 10 
     name rtoes
     direction -1.53543e-011 -4.2183e-011 1   
     length 1.09848   
     axis -90 -7.62852e-016 -20   XYZ
    dof rx
    limits (-90.0 20.0)
  end
  begin
     id 11 
     name lowerback
     direction 0.0118782 0.999815 -0.0151555   
     length 2.15772   
     axis 0 0 0   XYZ
    dof rx ry rz
    limits (-20.0 45.0)
           (-30.0 30.0)
           (-30.0 30.0)
  end
  begin
     id 12 
     name upperback
     direction 0.00130825 0.999065 0.0432113   
     length 2.14863   
     axis 0 0 0   XYZ
    dof rx ry rz
    limits (-20.0 45.0)
           (-30.0 30.0)
           (-30.0 30.0)
  end
  begin
     id 13 
     name thorax
     direction -0.00347005 0.998773 0.0494011   
     length 2.14936   
     axis 0 0 0   XYZ
    dof rx ry rz
    limits (-20.0 45.0)
           (-30.0 30.0)
           (-30.0 30.0)
  end
  begin
     id 14 
     name lowerneck
     direction -0.0262159 0.99424 0.103921   
     length 1.69373   
     axis 0 0 0   XYZ
    dof rx ry rz
    limits (-20.0 45.0)
           (-30.0 30.0)
           (-30.0 30.0)
  end
  begin
     id 15 
     name upperneck
     direction 0.0353511 0.977394 -0.20845   
     length 1.70857   
     axis 0 0 0   XYZ
    dof rx ry rz
    limits (-20.0 45.0)
           (-30.0 30.0)
           (-30.0 30.0)
  end
  begin
     id 16
     name head
     direction 0.0139214 0.996594 -0.0812836  
     length 1.72777  
     axis 0 0 0   XYZ
    dof rx ry rz
    limits (-20.0 45.0)
           (-30.0 30.0)
           (-30.0 30.0)
  end
  begin
     id 17 
     name lclavicle
     direction 0.841247 0.537205 -0.0609508  
     length 3.55371  
     axis 0 0 0   XYZ
    dof ry rz
    limits (-20.0 10.0)
           (0.0 20.0)
  end
  begin
     id 18 
     name lhumerus
     direction 1 -4.48964e-011 1.60116e-018   
     length 4.91377   
     axis -180 -30 -90   XYZ
    dof rx ry rz
    limits (-60.0 90.0)
           (-90.0 90.0)
           (-90.0 90.0)
  end
  begin
     id 19
     name lradius
     direction 1 -4.48989e-011 -8.93847e-027   
     length 3.00291   
     axis -180 -30 -90   XYZ
    dof rx
    limits (-10.0 170.0)
  end
  begin
     id 20
     name lwrist
     direction 1 -4.48932e-011 -7.31504e-027   
     length 1.50145   
     axis 5.74121e-015 90 90   XYZ
    dof ry
    limits (-180.0 0.0)
 end
  begin
     id 21 
     name lhand
     direction 1 -4.48971e-011 -1.46301e-026   
     length 0.450922   
     axis 9.33524e-015 90 90   XYZ
    dof rx rz
    limits (-90.0 90.0)
           (-45.0 45.0)
  end
  begin
     id 22 
     name lfingers
     direction 1 -4.49039e-011 -2.92602e-026   
     length 0.363545   
     axis 1.86705e-014 90 90   XYZ
    dof rx
    limits (0.0 90.0)
  end
  begin
     id 23
     name lthumb
     direction 0.707107 -6.34941e-011 0.707107   
     length 0.52198   
     axis -90 45 2.85299e-015   XYZ
    dof rx rz
    limits (-45.0 45.0)
           (-45.0 45.0)
  end
  begin
     id 24 
     name rclavicle
     direction -0.825079 0.56158 -0.0622297   
     length 3.39909  
     axis 0 0 0   XYZ 
    dof ry rz
    limits (-10.0 20.0)
           (-20.0 0.0)
  end
  begin
     id 25 
     name rhumerus
     direction -1 -4.48965e-011 1.61691e-027  
     length 4.86725   
     axis -180 30 90   XYZ
    dof rx ry rz
    limits (-90.0 60.0)
           (-90.0 90.0)
           (-90.0 90.0)
  end
  begin
     id 26 
     name rradius
     direction -1 -4.48964e-011 -2.25776e-027   
     length 3.17144   
     axis -180 30 90   XYZ
    dof rx
    limits (-10.0 170.0)
  end
  begin
     id 27 
     name rwrist
     direction -1 -4.48961e-011 -7.31504e-027   
     length 1.58572   
     axis 5.74121e-015 -90 -90   XYZ
    dof ry
    limits (-180.0 0.0)
  end
  begin
     id 28
     name rhand
     direction -1 -4.49013e-011 -1.46301e-026   
     length 0.419368   
     axis 9.33524e-015 -90 -90   XYZ
    dof rx rz
    limits (-90.0 90.0)
           (-45.0 45.0)
  end
  begin
     id 29
     name rfingers
     direction -1 -4.489e-011 -2.92602e-026   
     length 0.338105   
     axis 1.86705e-014 -90 -90   XYZ
    dof rx
    limits (0.0 90.0)
  end
  begin
     id 30
     name rthumb
     direction -0.707107 -6.35022e-011 0.707107   
     length 0.485453   
     axis -90 -45 -2.85299e-015   XYZ
    dof rx rz
    limits (-45.0 45.0)
           (-45.0 45.0)
  end
:hierarchy
  begin
    root lhipjoint rhipjoint lowerback
    lhipjoint lfemur
    lfemur ltibia
    ltibia lfoot
    lfoot ltoes
    rhipjoint rfemur
    rfemur rtibia
    rtibia rfoot
    rfoot rtoes
    lowerback upperback
    upperback thorax
    thorax lowerneck lclavicle rclavicle
    lowerneck upperneck
    upperneck head
    lclavicle lhumerus
    lhumerus lradius
    lradius lwrist
    lwrist lhand lthumb
    lhand lfingers
    rclavicle rhumerus
    rhumerus rradius
    rradius rwrist
    rwrist rhand rthumb
    rhand rfingers
  end

#!OML:ASF H:\Swim 2\Project 1\Capture day 1\Session 1\male.ASF
:FULLY-SPECIFIED
:DEGREES
1201
root 7.94923 9.87891 11.9168 95.0061 3.10405 -0.390863
lowerback -2.19877 0.208879 -4.03878
upperback -4.54911 0.351029 2.22242
thorax -3.50697 0.362924 4.56726
lowerneck -14.2581 1.57148 4.22862
upperneck 15.5119 0.862023 1.83613
head 7.1246 0.81921 -0.00848758
rclavicle 5.96354e-016 -2.29224e-014
rhumerus 84.1464 -37.7598 -27.5187
rradius 28.3453
rwrist -6.69854
rhand -9.0956 4.04158
rfingers 7.12502
rthumb 16.8544 -25.247
lclavicle 5.96354e-016 -2.29224e-014
lhumerus 14.426 -18.7919 10.683
lradius 72.3196
lwrist 32.0758
lhand -39.949 -13.2633
lfingers 7.12502
lthumb -12.9186 16.3168
rfemur -33.3192 9.13086 17.64
rtibia 25.8875
rfoot 36.7895 3.76314
rtoes 18.5619
lfemur -27.8937 2.44891 -24.584
ltibia 45.3773
lfoot 7.31489 8.45205
ltoes 26.2022
1202
root 7.91774 9.87774 11.9066 95.2431 3.35723 0.22487
lowerback -2.19825 0.567901 -3.88607
upperback -4.79543 0.838151 2.07678
thorax -3.81201 0.615718 4.32241
lowerneck -14.0786 1.17536 4.58693
upperneck 15.8395 0.282326 1.67459
head 7.19545 0.557045 -0.178756
rclavicle 3.18055e-015 -1.9133e-014
rhumerus 83.4914 -37.7095 -27.1113
rradius 28.3447
rwrist -6.47738
rhand -9.8873 3.96879
rfingers 7.12502
rthumb 16.0922 -25.3831
lclavicle 3.18055e-015 -1.9133e-014
lhumerus 13.3755 -20.3165 12.2746
lradius 74.3112
lwrist 32.3208
lhand -39.8995 -13.9645
lfingers 7.12502
lthumb -12.8709 15.6187
rfemur -32.8179 9.25628 17.8687
rtibia 26.4644
rfoot 36.9232 4.06275
rtoes 18.7819
lfemur -28.9046 2.25272 -24.2791
ltibia 45.5082
lfoot 7.01683 9.21901
ltoes 26.6354
1203
root 7.88536 9.87731 11.8958 95.4496 3.58999 0.795603
lowerback -2.15413 0.982377 -3.79687
upperback -5.04041 1.40031 1.92171
thorax -4.14523 0.908632 4.09849
lowerneck -13.8852 0.746078 5.02438
upperneck 16.2111 -0.34296 1.43598
head 7.27398 0.273768 -0.391962
rclavicle 2.06736e-014 6.95746e-016
rhumerus 82.6036 -37.7172 -26.4625
rradius 28.3981
rwrist -6.35458
rhand -10.7561 3.89316
rfingers 7.12502
rthumb 15.2554 -25.5243
lclavicle 2.06736e-014 6.95746e-016
lhumerus 12.3653 -21.8605 13.9455
lradius 76.1227
lwrist 32.3353
lhand -39.8852 -14.551
lfingers 7.12502
lthumb -12.8571 15.033
rfemur -32.2534 9.45365 18.0937
rtibia 27.0847
rfoot 37.0814 4.43003
rtoes 18.9347
lfemur -29.9259 1.9862 -23.959
ltibia 45.4222
lfoot 6.70833 10.1976
ltoes 27.4616
1204
root 7.85235 9.87762 11.8854 95.6214 3.79143 1.31742
lowerback -2.06832 1.42475 -3.764
upperback -5.26858 1.99976 1.75994
thorax -4.48627 1.22166 3.89313
lowerneck -13.7021 0.3125 5.51446
upperneck 16.6124 -0.974563 1.14737
head 7.35886 -0.0109215 -0.631067
rclavicle -2.62396e-014 -9.24349e-015
rhumerus 81.594 -37.7627 -25.665
rradius 28.4768
rwrist -6.35045
rhand -11.6622 3.81093
rfingers 7.12502
rthumb 14.3825 -25.6708
lclavicle -2.62396e-014 -9.24349e-015
lhumerus 11.323 -23.3997 15.6701
lradius 77.7328
lwrist 32.0826
lhand -39.9333 -14.9981
lfingers 7.12502
lthumb -12.9035 14.583
rfemur -31.6257 9.6827 18.3192
rtibia 27.7393
rfoot 37.3311 4.84626
rtoes 18.7946
lfemur -30.9329 1.63709 -23.6291
ltibia 45.1129
lfoot 6.38833 11.3614
ltoes 28.5656
1205
root 7.81896 9.87869 11.876 95.77 3.95561 1.79663
lowerback -1.95491 1.84179 -3.75647
upperback -5.45948 2.56391 1.5994
thorax -4.79852 1.51562 3.69874
lowerneck -13.5536 -0.0707721 5.99741
upperneck 16.9791 -1.53267 0.84303
head 7.43499 -0.261497 -0.866993
rclavicle 3.49861e-014 1.92821e-014
rhumerus 80.7773 -37.7891 -25.0644
rradius 28.5107
rwrist -6.34553
rhand -12.5788 3.75278
rfingers 7.12502
rthumb 13.4992 -25.7897
lclavicle 3.49861e-014 1.92821e-014
lhumerus 10.1086 -24.8591 17.4303
lradius 79.1394
lwrist 31.5723
lhand -40.0823 -15.3173
lfingers 7.12502
lthumb -13.0471 14.2547
rfemur -30.9462 9.91002 18.5449
rtibia 28.4104
rfoot 37.6508 5.28115
rtoes 18.4189
lfemur -31.9119 1.181 -23.2851
ltibia 44.5704
lfoot 6.05989 12.6642
ltoes 29.9995
1206
root 7.78571 9.88047 11.8692 95.8959 4.08209 2.22696
lowerback -1.83065 2.19112 -3.73374
upperback -5.58344 3.03471 1.44322
thorax -5.03418 1.75767 3.49987
lowerneck -13.4791 -0.357191 6.40461
upperneck 17.2926 -1.95495 0.581256
head 7.50728 -0.4487 -1.0633
rclavicle -4.77083e-015 -8.34896e-015
rhumerus 80.3026 -37.8122 -24.777
rradius 28.475
rwrist -6.38335
rhand -13.4701 3.70336
rfingers 7.12502
rthumb 12.64 -25.8942
lclavicle -4.77083e-015 -8.34896e-015
lhumerus 8.61601 -26.1519 19.1996
lradius 80.3511
lwrist 30.8619
lhand -40.3538 -15.5314
lfingers 7.12502
lthumb -13.3089 14.0237
rfemur -30.2164 10.1132 18.7735
rtibia 29.0757
rfoot 38.0575 5.7111
rtoes 17.8307
lfemur -32.8352 0.595456 -22.9167
ltibia 43.7846
lfoot 5.65555 14.1455
ltoes 31.3478
1207
root 7.75279 9.88312 11.8671 96.002 4.17177 2.61469
lowerback -1.70173 2.44545 -3.67444
upperback -5.63241 3.37468 1.2941
thorax -5.17673 1.92742 3.29154
lowerneck -13.4715 -0.521683 6.71176
upperneck 17.5197 -2.20687 0.382976
head 7.56759 -0.55791 -1.20549
rclavicle -2.06736e-014 3.77691e-015
rhumerus 80.3493 -37.7993 -25.0107
rradius 28.3268
rwrist -6.37067
rhand -14.3208 3.64117
rfingers 7.12502
rthumb 11.8198 -26.0053
lclavicle -2.06736e-014 3.77691e-015
lhumerus 6.79499 -27.2402 20.9638
lradius 81.384
lwrist 30.0427
lhand -40.7772 -15.6847
lfingers 7.12502
lthumb -13.7169 13.8432
rfemur -29.4415 10.2776 19.0028
rtibia 29.7193
rfoot 38.5513 6.10318
rtoes 17.2101
lfemur -33.68 -0.140316 -22.5123
ltibia 42.7488
lfoot 5.15926 15.8014
ltoes 32.5059
1208
root 7.72138 9.8871 11.8706 96.1415 4.22551 2.99994
lowerback -1.62531 2.59174 -3.55267
upperback -5.61562 3.56771 1.13892
thorax -5.1999 2.01538 3.05121
lowerneck -13.5599 -0.566673 6.9228
upperneck 17.6982 -2.30054 0.265178
head 7.63557 -0.592473 -1.29032
rclavicle -6.36111e-015 -1.11319e-014
rhumerus 80.7911 -37.7945 -25.603
rradius 28.0998
rwrist -6.43157
rhand -15.1107 3.53303
rfingers 7.12502
rthumb 11.058 -26.1557
lclavicle -6.36111e-015 -1.11319e-014
lhumerus 4.69347 -28.1115 22.7008
lradius 82.2525
lwrist 29.2265
lhand -41.3442 -15.8506
lfingers 7.12502
lthumb -14.2633 13.6396
rfemur -28.6897 10.3677 19.2169
rtibia 30.3391
rfoot 39.121 6.43566
rtoes 16.9878
lfemur -34.4878 -1.06944 -22.0631
ltibia 41.4685
lfoot 4.56938 17.6218
ltoes 33.246
1209
root 7.69179 9.89247 11.8802 96.3215 4.2469 3.38321
lowerback -1.60665 2.64765 -3.38974
upperback -5.55542 3.63879 0.987937
thorax -5.13015 2.03718 2.80168
lowerneck -13.6872 -0.521465 7.05254
upperneck 17.8028 -2.27007 0.210669
head 7.6922 -0.570458 -1.32831
rclavicle -5.88403e-014 1.07344e-014
rhumerus 81.6014 -37.7424 -26.552
rradius 27.7971
rwrist -6.46941
rhand -15.8398 3.38493
rfingers 7.12502
rthumb 10.3547 -26.3401
lclavicle -5.88403e-014 1.07344e-014
lhumerus 2.36613 -28.8122 24.4485
lradius 82.9699
lwrist 28.5104
lhand -42.0234 -16.1155
lfingers 7.12502
lthumb -14.9177 13.3273
rfemur -27.9983 10.3851 19.4113
rtibia 30.955
rfoot 39.7525 6.71471
rtoes 17.26
lfemur -35.2558 -2.17837 -21.561
ltibia 39.9653
lfoot 3.91268 19.5546
ltoes 33.5829
1210
root 7.66393 9.89887 11.894 96.534 4.24064 3.75262
lowerback -1.64351 2.65807 -3.22115
upperback -5.4752 3.6493 0.839784
thorax -5.00254 2.0272 2.55831
lowerneck -13.8374 -0.432438 7.1703
upperneck 17.8979 -2.18509 0.179529
head 7.75248 -0.521806 -1.35113
rclavicle -1.59028e-014 -8.74653e-015
rhumerus 82.4974 -37.6605 -27.5551
rradius 27.4793
rwrist -6.55413
rhand -16.5113 3.17943
rfingers 7.12502
rthumb 9.70692 -26.5769
lclavicle -1.59028e-014 -8.74653e-015
lhumerus -0.0612113 -29.4228 26.2207
lradius 83.5552
lwrist 27.9688
lhand -42.7946 -16.5575
lfingers 7.12502
lthumb -15.6606 12.8287
rfemur -27.3938 10.3422 19.586
rtibia 31.5958
rfoot 40.4421 6.94413
rtoes 17.9941
lfemur -35.9746 -3.42762 -21.0023
ltibia 38.2847
lfoot 3.19537 21.5288
ltoes 33.4684
1211
root 7.63789 9.90601 11.91 96.7669 4.21056 4.0853
lowerback -1.72616 2.65268 -3.07004
upperback -5.39 3.63977 0.700919
thorax -4.84447 2.0082 2.33797
lowerneck -13.9854 -0.326202 7.30059
upperneck 17.993 -2.07851 0.14063
head 7.81321 -0.463051 -1.37619
rclavicle 1.27222e-014 -5.76476e-015
rhumerus 83.3604 -37.5357 -28.4977
rradius 27.1748
rwrist -6.65604
rhand -17.1435 2.93183
rfingers 7.12502
rthumb 9.09685 -26.852
lclavicle 1.27222e-014 -5.76476e-015
lhumerus -2.53684 -29.9846 28.0444
lradius 84.0325
lwrist 27.6466
lhand -43.595 -17.2452
lfingers 7.12502
lthumb -16.4313 12.0789
rfemur -26.9053 10.2516 19.7428
rtibia 32.2878
rfoot 41.1694 7.16818
rtoes 19.0364
lfemur -36.635 -4.76017 -20.3917
ltibia 36.4905
lfoot 2.48867 23.3814
ltoes 33.2545
1212
root 7.61336 9.91311 11.926 96.964 4.16971 4.33166
lowerback -1.80345 2.66418 -2.95498
upperback -5.30324 3.65362 0.583497
thorax -4.69382 2.0037 2.15913
lowerneck -14.0984 -0.228196 7.45036
upperneck 18.0947 -1.98373 0.0965829
head 7.86962 -0.408974 -1.40704
rclavicle -3.33958e-014 3.97569e-015
rhumerus 84.1194 -37.3501 -29.3083
rradius 26.8955
rwrist -6.73533
rhand -17.7495 2.65007
rfingers 7.12502
rthumb 8.51205 -27.1584
lclavicle -3.33958e-014 3.97569e-015
lhumerus -5.04542 -30.5459 29.9386
lradius 84.4343
lwrist 27.5477
lhand -44.3461 -18.146
lfingers 7.12502
lthumb -17.1543 11.1168
rfemur -26.5001 10.1419 19.9017
rtibia 33.0372
rfoot 42.0048 7.41259
rtoes 19.9933
lfemur -37.1855 -6.0991 -19.7348
ltibia 34.6658
lfoot 1.78082 24.9995
ltoes 32.8755
1213
root 7.59045 9.91957 11.9406 97.1044 4.13002 4.46385
lowerback -1.85911 2.71363 -2.87726
upperback -5.2168 3.71925 0.489732
thorax -4.56335 2.02822 2.02301
lowerneck -14.1901 -0.151085 7.63513
upperneck 18.2231 -1.92033 0.0342262
head 7.92975 -0.368163 -1.45299
rclavicle -2.8625e-014 -2.14687e-014
rhumerus 84.6708 -37.1268 -29.8713
rradius 26.6669
rwrist -6.82047
rhand -18.3449 2.35495
rfingers 7.12502
rthumb 7.93743 -27.476
lclavicle -2.8625e-014 -2.14687e-014
lhumerus -7.56625 -31.115 31.9241
lradius 84.7739
lwrist 27.6204
lhand -45.0079 -19.1938
lfingers 7.12502
lthumb -17.7913 10.0123
rfemur -26.1679 10.0184 20.0757
rtibia 33.8233
rfoot 42.9093 7.67893
rtoes 20.7455
lfemur -37.6138 -7.38906 -19.0419
ltibia 32.8999
lfoot 1.08058 26.2454
ltoes 32.3776
1214
root 7.56966 9.92484 11.9524 97.1816 4.10122 4.4786
lowerback -1.88853 2.80307 -2.8264
upperback -5.13475 3.83955 0.423295
thorax -4.45928 2.08279 1.92718
lowerneck -14.2593 -0.100553 7.8431
upperneck 18.3838 -1.89591 -0.0335308
head 7.99513 -0.343431 -1.50882
rclavicle 1.59028e-014 7.15625e-015
rhumerus 84.9839 -36.873 -30.1436
rradius 26.4977
rwrist -6.91437
rhand -18.9216 2.06635
rfingers 7.12502
rthumb 7.38082 -27.7849
lclavicle 1.59028e-014 7.15625e-015
lhumerus -10.1158 -31.7022 34.0102
lradius 85.0631
lwrist 27.802
lhand -45.5433 -20.3133
lfingers 7.12502
lthumb -18.3064 8.84525
rfemur -25.8964 9.86438 20.2734
rtibia 34.5997
rfoot 43.8303 7.96427
rtoes 21.2559
lfemur -37.9247 -8.60024 -18.3296
ltibia 31.2825
lfoot 0.348123 27.0578
ltoes 31.4416
1215
root 7.55134 9.92852 11.9616 97.1933 4.08711 4.38069
lowerback -1.89163 2.93051 -2.7982
upperback -5.05656 4.01189 0.387756
thorax -4.38079 2.16581 1.87299
lowerneck -14.3211 -0.0768345 8.0657
upperneck 18.5851 -1.91024 -0.108091
head 8.07116 -0.334918 -1.57388
rclavicle -2.8625e-014 -1.59028e-015
rhumerus 85.0551 -36.597 -30.101
rradius 26.3885
rwrist -7.03629
rhand -19.4803 1.7831
rfingers 7.12502
rthumb 6.84149 -28.0864
lclavicle -2.8625e-014 -1.59028e-015
lhumerus -12.7035 -32.3014 36.2191
lradius 85.2884
lwrist 28.0072
lhand -45.9738 -21.4491
lfingers 7.12502
lthumb -18.7205 7.6701
rfemur -25.6692 9.662 20.4952
rtibia 35.3091
rfoot 44.7093 8.24358
rtoes 21.5152
lfemur -38.1256 -9.70257 -17.6293
ltibia 29.8885
lfoot -0.359187 27.3837
ltoes 30.0263
